<?xml version="1.0" encoding="UTF-8" standalone="no"?>
<!-- Created with Inkscape (http://www.inkscape.org/) -->

<svg
   width="103.78944mm"
   height="409.56613mm"
   viewBox="0 0 103.78944 409.56613"
   version="1.1"
   id="svg8"
   xmlns="http://www.w3.org/2000/svg"
   xmlns:svg="http://www.w3.org/2000/svg"
   xmlns:rdf="http://www.w3.org/1999/02/22-rdf-syntax-ns#"
   xmlns:cc="http://creativecommons.org/ns#"
   xmlns:dc="http://purl.org/dc/elements/1.1/">
  <defs
     id="defs2" />
  <metadata
     id="metadata5">
    <rdf:RDF>
      <cc:Work
         rdf:about="">
        <dc:format>image/svg+xml</dc:format>
        <dc:type
           rdf:resource="http://purl.org/dc/dcmitype/StillImage" />
        <dc:title />
      </cc:Work>
    </rdf:RDF>
  </metadata>
  <g
     id="layer2"
     style="display:inline"
     transform="translate(609.79921,-350.74912)">
    <g
       id="g2">
      <path
         style="display:inline;fill:#000000;stroke:none;stroke-width:0.377953;stroke-linecap:butt;stroke-linejoin:miter;stroke-opacity:1"
         d="m -2076.9941,1325.666 c -11.8639,0.041 -25.031,1.4375 -31.7832,4.0156 -9.8215,3.75 -34.1071,17.1435 -43.75,24.4649 -7.5037,5.6972 -12.7383,10.8541 -14.7051,12.8476 -0.6786,0.6878 -0.8825,1.9183 -0.8281,3.0528 0.1167,2.4403 0.3268,6.7621 1.2128,11.998 2.1984,13.2808 4.6877,22.9561 12.6368,34.1367 0.1368,0.7169 0.1011,1.7467 -0.039,2.6622 -0.1047,0.6831 -1.3063,2.1546 -1.4941,2.8925 -1.4773,5.3116 -2.9889,8.7186 -4.8829,12.2149 -1.1606,2.1425 -2.1861,4.7085 -4.2539,6.6191 -2.5402,2.347 -6.7501,7.649 -2.0644,10.1172 1.3649,0.7189 1.6684,2.0497 2.6172,2.3184 5.5088,1.5597 6.4822,3.5101 6.8867,3.9082 -1.2244,3.2313 -0.2953,3.3605 -0.418,7.1035 -0.034,1.0237 -2.4389,1.9593 -2.9746,3.8789 -0.2218,0.3643 -0.6147,4.0022 0,4.8828 0.758,1.0927 1.6097,1.4161 2.5488,1.9922 0,0 0.4463,0.7427 0.043,1.4043 -0.2963,0.4863 0.034,0.2327 -1.0254,1.1406 -1.0576,0.9063 -1.5895,4.1434 -1.1386,5.625 0.6152,2.0215 1.6876,3.0702 3.5937,3.8828 2.6483,1.1291 2.6211,1.1549 2.6797,2.6797 0.052,1.3502 -4.6518,3.5074 -5.1875,9.043 0.274,3.675 3.5731,12.3085 7.4492,12.9492 3.8705,0.8263 10.4103,0.1426 17.9512,-0.8867 6.6748,-0.911 12.705,-0.6044 17.5293,-1.9395 2.2118,-0.6372 2.9938,0.2461 3.1562,1.4297 0.3209,4.5337 0.3996,9.0886 0.1778,14.0274 0,-0.037 -0.057,-0.5762 -0.057,-0.5762 -4.7982,3.6618 -17.1725,7.5763 -19.6347,10.4804 -1.1121,1.3118 -2.7204,5.7185 -5.2774,11.2637 -16.5971,5.4447 -54.0869,17.842 -56.7793,23.2266 -3.283,6.566 -25.506,63.1348 -28.7891,68.1855 -3.2829,5.0508 -19.1926,12.1218 -33.8398,24.4961 -14.6472,12.3744 -24.4507,32.8101 -28.4913,36.8507 -4.0406,4.0406 -15.595,9.4928 -18.1817,12.35 -1.017,1.1232 -1.2605,16.1472 2.5276,32.5621 3.7881,16.4151 8.5372,42.233 11.3153,43.2431 2.7778,1.0101 2.8801,3.6395 16.5171,8.1852 7.1749,3.1077 12.1113,7.0966 15.1957,9.8787 4.9316,3.2695 7.8624,3.5677 13.7925,2.9082 0,0 -10.356,76.4292 -11.0703,125.7148 -0.7143,49.2858 2.0535,121.9646 -0.089,139.6432 -2.1428,17.6787 -6.7871,55.8925 -6.7871,55.8925 0,0 0.1797,-6e-4 2.6797,0.5352 2.5001,0.5357 14.4629,1.6074 14.4629,1.6074 0,0 0.8943,15.0009 4.2871,51.0723 3.3929,36.0714 14.2843,80.892 16.9629,91.4277 2.6785,10.5357 14.6445,11.25 14.6445,11.25 0,0 10.1772,31.7855 20.7129,57.1426 10.5357,25.357 20.3581,44.2861 27.3223,65.3574 6.9643,21.0714 8.3919,43.5725 10.1777,57.6797 1.7857,14.107 11.7854,48.927 17.1426,80.7129 5.3571,31.7856 -1.4274,112.8584 -3.5703,116.7871 -2.1428,3.9284 -7.3225,18.0357 -7.6797,20 -0.3572,1.9643 -9.9999,12.1417 -16.25,21.0703 -6.2499,8.9286 -15.8926,28.75 -15.8926,28.75 l -7.3203,3.3926 c -7.3214,3.3928 -16.9645,10.537 -30.3574,16.4297 -13.3928,5.8929 -10.3581,9.1074 -9.8223,10.3574 0.5357,1.25 -0.178,1.7855 11.9649,5.8926 12.1429,4.1073 57.4986,1.7873 69.4629,0.8945 11.6072,-1.2499 14.828,-6.3408 16.6093,-11.4297 5.8535,-16.7226 12.9176,-35.29 29.7149,-43.8574 2.4136,-1.1861 4.0351,-1.6797 4.0351,-1.6797 0,0 0.3559,13.9282 -0.1797,20.8926 -0.5358,6.9641 -1.9635,26.9656 -1.7851,28.0371 0.1788,1.0714 2e-4,1.7854 1.6074,2.1426 1.6071,0.3571 5.5352,-1.4297 5.5352,-1.4297 0,0 1.6076,-9.8198 5.7148,-27.8555 4.1071,-18.0357 9.5432,-25.1264 12.4004,-33.1621 2.8571,-8.0357 2.5561,-6.2095 3.0918,-25.6738 -1.0134,-13.9671 -1.9604,-21.9226 -8.7246,-33.5176 -11.793,-20.2152 -0.7144,-49.1878 -0.1602,-66.2187 0.3572,-17.3215 4.999,-14.1065 5.1778,-92.6778 0.1787,-78.5714 -14.6429,-87.6801 -17.5,-96.7871 -2.8571,-9.1071 -7.1435,-25.1771 -8.2149,-29.4629 -1.0714,-4.2856 2.1426,-34.6445 2.1426,-34.6445 0,0 20.7146,44.4644 30.3574,62.8574 9.6429,18.3928 48.2142,105.7147 51.25,155.3574 3.0356,49.643 15.1789,97.1432 17.8574,106.6075 2.6786,9.4642 0,52.5005 0.1797,61.9648 0.1788,9.4642 -1.072,23.7496 -4.4648,32.1426 -3.3929,8.3929 -4.1074,20.7148 -4.1074,20.7148 -9.1746,22.3331 -14.0436,43.4044 -22.7676,64.6426 -9.6957,14.213 -34.7969,25.8151 -50.2676,34.2852 -1.8446,3.5831 -2.869,7.0022 0,9.6425 0,0 9.6429,4.2869 13.75,3.9297 4.1071,-0.3571 48.9277,-3.9284 62.6777,-4.6425 13.75,-0.7143 19.6428,-11.9655 23.75,-17.6797 4.1071,-5.7143 21.7864,-41.6073 24.4649,-47.5 2.6786,-5.893 8.5703,-3.9278 8.5703,-3.9278 l -3.75,58.0352 10.8945,-1.25 c 0,0 4.9983,-25.8934 9.1055,-41.9649 4.1071,-16.0714 10.8933,-24.2856 13.2148,-35 2.3215,-10.7142 0.5361,-23.9288 -0.8925,-30.3574 -1.4287,-6.4286 -16.7861,-35.5354 -17.8575,-45.8926 -1.0715,-10.357 -2.1431,-51.2494 -2.8574,-66.7851 -0.7143,-15.5358 -0.8928,-16.9652 1.25,-27.3223 2.1429,-10.3571 6.9656,-38.0357 8.0371,-83.75 1.0715,-45.7143 -6.4296,-62.8562 -11.4297,-80.1777 -5,-17.3215 -20.1786,-46.2509 -27.5,-56.0723 -7.3215,-9.8214 -6.7863,-21.785 -15.7148,-44.2851 -8.9287,-22.4999 -9.4643,-53.7503 -8.75,-54.1075 0.7143,-0.3571 1.9655,-1.4288 5.1797,-2.8574 3.2143,-1.4286 8.75,-5.3554 8.75,-5.3554 0,0 -0.3576,-37.5003 -1.6074,-81.6075 -1.25,-44.1071 -5.8926,-66.9648 -5.8926,-66.9648 l 20.3574,-9.6426 c 0,0 -6.0725,-36.25 -12.6797,-67.5 -6.607,-31.25 -16.4289,-58.3936 -30.3574,-104.8223 -13.9286,-46.4285 -44.6426,-92.3203 -44.6426,-92.3203 0,0 1.4298,-13.2152 5.1797,-36.0722 3.7501,-22.8573 10.1772,-33.2133 10.7129,-34.8203 0.5357,-1.6073 12.3219,-14.8218 35.7148,-46.6075 23.3929,-31.7857 35.8926,-54.2854 49.6426,-94.6425 13.75,-40.3572 12.1426,-84.2872 12.1426,-84.2872 0,0 -10.8926,-14.8211 -12.1426,-15.8925 -1.25,-1.0714 -5.1787,-2.6792 -7.5,-3.2149 -2.3214,-0.5357 -17.4997,-36.4275 -22.1426,-51.0703 -4.6429,-14.6429 -2.3208,-47.858 -3.0351,-57.3223 -0.8807,-8.9646 -7.9601,-47.0137 -18.5723,-70.7128 -12.2172,-19.098 -21.0864,-22.3436 -23.4746,-25.5879 -5.1778,-7.034 -25.4536,-11.3765 -38.668,-13.1621 -4.1294,-0.5582 -9.2518,-0.8194 -14.6445,-0.8008 z m -85.3008,56.9238 v 0 c 0,0 1.6407,4.4198 3.5977,6.377 1.9573,1.9572 3.5996,3.6621 3.5996,3.6621 l 0.061,18.2461 c 0,0 -4.1675,-8.144 -5.1777,-13.6367 -1.0102,-5.4928 -2.0189,-11.0497 -2.082,-14.6485 z"
         transform="scale(0.26458333)"
         id="path950" />
      <path
         style="opacity:1;vector-effect:none;fill:#ffffff;fill-opacity:1;stroke:none;stroke-width:0.377953;stroke-linecap:butt;stroke-linejoin:miter;stroke-miterlimit:4;stroke-dasharray:none;stroke-dashoffset:0;stroke-opacity:1"
         d="m -2054.3457,1521.5586 c -0.511,0.064 -1.0736,0.061 -2.4141,0.5605 2.5268,6.3108 6.5405,15.6889 9.7071,20.043 2.4036,3.305 6.4472,8.1838 10.0097,12.375 2.8255,-4.1857 5.1954,-8.1657 4.961,-9.4941 -0.3788,-2.1465 -2.7713,-2.0563 -9.211,-8.4961 -6.4397,-6.4397 -12.0426,-15.1146 -13.0527,-14.9883 z m -58.7676,1.9922 c -4.7982,3.6618 -17.1725,7.5764 -19.6347,10.4804 -2.4623,2.9043 -7.0933,20.6486 -19.9727,33.4649 -12.8795,12.8164 -43.8568,43.5588 -44.1094,44.3164 -0.2525,0.7576 2.6524,0.8837 5.1778,-0.7578 4.5404,-3.6566 34.1544,-20.0646 33.6816,-19.5918 l 3.7227,-0.8848 -3.1739,3.9278 c -0.8328,1.0302 -19.0779,41.0838 -22.6133,46.6015 -2.0203,3.7881 -3.9151,7.797 -3.4101,8.1758 0.1531,0.1149 0.9501,1.7722 2.2324,0.8516 2.9453,-2.1146 8.0717,-7.7363 13.1738,-12.3106 9.5297,-10.3162 69.0929,-55.981 73.6133,-57.832 2.7071,-2.0937 4.6318,-3.7662 6.0781,-4.5195 1.7096,-0.8905 2.3054,0.039 3.1797,2.5429 0.4045,1.1584 2.2013,4.3768 2.584,6.5196 2.6147,10.0989 5.6094,15.898 5.6094,19.4336 0,3.5353 3.7871,13.1308 3.7871,13.1308 1.1234,1.4356 3.7645,-0.6143 3.7285,-2.5058 0,0 1.581,-5.4018 4.9902,-13.2305 3.4092,-7.8287 18.0188,-33.7456 22.1856,-39.4278 0.909,-1.2395 1.9438,-2.6764 2.9727,-4.1308 -5.3204,-4.6099 -11.7239,-10.8087 -14.5293,-16.1777 -3.3492,-6.4095 -6.4041,-12.4057 -8.5899,-16.7149 -0.395,0.2195 -0.7466,0.4075 -1.1855,0.6582 -7.0712,4.0406 -33.209,19.4453 -33.209,19.4453 0,0 0.6321,7.4505 -4.5449,14.5215 -5.1771,7.0711 -14.0167,12.1218 -18.1836,17.2988 -4.1669,5.177 -7.5762,6.4395 -7.5762,6.4395 0,0 -1.3887,-0.3785 -1.3887,-1.0098 0,-0.6314 1.1365,-9.5975 5.4297,-18.9414 4.2931,-9.3439 11.6172,-20.708 11.6172,-21.9707 0,-1.2627 -1.6426,-17.8027 -1.6426,-17.8027 z m -73.6465,196.1152 c -2.8041,0.013 -5.6947,0.064 -8.4179,0.1758 -10.8929,0.4464 -17.3228,0.3568 -21.7871,7.7676 -4.4643,7.4107 -19.1063,28.3925 -21.4278,35.8926 -2.3214,7.4999 -9.6426,14.9101 -4.0176,22.4101 5.625,7.5 7.4102,12.5906 12.4102,11.7871 5,-0.8036 26.8758,-8.8404 30.4473,-9.5547 3.5714,-0.7142 12.8554,-2.9453 12.8554,-2.9453 l 1.3399,-2.7695 c 0,0 -9.2855,-5.5352 -15.8926,-14.9102 -6.6071,-9.375 -6.875,-14.1972 -6.875,-14.1972 0,0 4.8212,-6.3379 12.1426,-13.2129 7.3215,-6.875 17.4994,-16.697 21.1601,-18.2149 3.6607,-1.5179 4.1075,-1.9648 4.1075,-1.9648 0,0 -7.6326,-0.3014 -16.045,-0.2637 z m -48.7754,84.7285 c 0,0 -0.9824,0.2687 -2.8574,1.0723 -1.875,0.8036 -6.0722,1.3379 -6.0722,1.3379 0,0 -0.4454,3.483 0.1796,5.4473 0.625,1.9642 6.4274,13.6595 6.6954,14.1953 0.2678,0.5355 2.2316,0.4462 3.0351,0.3574 0.8036,-0.089 0.7163,-6.8736 1.252,-8.8379 0.5356,-1.9643 4.9996,-4.3756 5.8925,-5.7148 0.893,-1.3394 0.6248,-4.108 0.2676,-4.8223 -0.3571,-0.7143 -2.6791,-0.5341 -4.4648,-0.7129 -1.7858,-0.1786 -3.9278,-2.3223 -3.9278,-2.3223 z"
         transform="scale(0.26458333)"
         id="path1128" />
    </g>
  </g>
</svg>
