<?xml version="1.0" encoding="UTF-8" standalone="no"?>
<!-- Created with Inkscape (http://www.inkscape.org/) -->

<svg
   width="700"
   height="700.00006"
   viewBox="0 0 700 700.00006"
   version="1.1"
   id="svg1"
   xml:space="preserve"
   xmlns="http://www.w3.org/2000/svg"
   xmlns:svg="http://www.w3.org/2000/svg"><defs
     id="defs1" /><g
     id="layer1"
     transform="translate(-232.06262,1313.9597)"><path
       id="path3-2-9-8"
       style="fill:none;stroke:#c79a69;stroke-width:10.08;stroke-linecap:round;stroke-miterlimit:13.9;stroke-dasharray:none;stroke-opacity:1;paint-order:markers stroke fill"
       d="m 263.97248,-1138.6016 -26.86984,-26.8698 v -110.8803 c 6.3231,-19.0659 10.70318,-23.5936 32.56798,-32.568 h 110.88025 l 26.86984,26.8698 h 349.28382 l 26.86984,-26.8698 h 110.88035 c 19.06578,6.3231 23.59353,10.7031 32.56788,32.568 v 110.8803 l -26.86984,26.8698 v 349.28387 l 26.86984,26.86984 v 110.88025 c -8.97435,21.8648 -13.5021,26.24488 -32.56788,32.56798 H 783.57437 L 756.70453,-645.8695 H 407.42071 l -26.86984,26.86984 H 269.67062 c -21.8648,-8.97438 -26.24488,-13.50209 -32.56798,-32.56792 v -110.8803 l 26.86984,-26.86986 z" /><rect
       style="fill:#000000;stroke:#c69869;stroke-width:18.7356;stroke-linecap:round;stroke-miterlimit:13.9;stroke-dasharray:none;stroke-opacity:1;paint-order:markers stroke fill"
       id="rect3"
       width="561.2644"
       height="561.2644"
       x="301.43042"
       y="-1244.5919"
       rx="61.812309"
       ry="61.812309" /></g></svg>
