<?xml version="1.0" encoding="UTF-8" standalone="no"?>
<!-- Created with Inkscape (http://www.inkscape.org/) -->

<svg
   width="120.76512mm"
   height="419.03165mm"
   viewBox="0 0 120.76512 419.03165"
   version="1.1"
   id="svg8"
   xmlns="http://www.w3.org/2000/svg"
   xmlns:svg="http://www.w3.org/2000/svg"
   xmlns:rdf="http://www.w3.org/1999/02/22-rdf-syntax-ns#"
   xmlns:cc="http://creativecommons.org/ns#"
   xmlns:dc="http://purl.org/dc/elements/1.1/">
  <defs
     id="defs2" />
  <metadata
     id="metadata5">
    <rdf:RDF>
      <cc:Work
         rdf:about="">
        <dc:format>image/svg+xml</dc:format>
        <dc:type
           rdf:resource="http://purl.org/dc/dcmitype/StillImage" />
        <dc:title />
      </cc:Work>
    </rdf:RDF>
  </metadata>
  <g
     id="layer2"
     style="display:inline"
     transform="translate(472.37425,-344.90866)">
    <g
       id="g1">
      <path
         style="display:inline;fill:#000000;stroke:none;stroke-width:0.377953;stroke-linecap:butt;stroke-linejoin:miter;stroke-opacity:1"
         d="m -1537.8574,1303.5918 c -2.1429,0 -2.4992,2.6777 -3.9278,5.1777 -1.4285,2.5 -3.9288,1.6075 -5.3574,1.6075 -1.4285,0 -0.1786,-1.4281 -2.5,-3.0352 -2.3214,-1.607 -9.286,-1.7869 -10.3574,-1.4297 -1.0714,0.3572 1.9648,4.8223 1.9648,4.8223 0,0 -0.8931,0.8926 -1.6074,0.8926 -0.7142,0 -7.3225,-2.6795 -11.4297,-2.3223 -4.1071,0.3571 -15.5351,7.6797 -18.0351,8.9297 -2.5,1.25 -27.6791,20.7145 -28.2149,25.3574 -0.5357,4.6428 -0.8922,44.9997 -1.7851,47.1426 -0.8929,2.1428 -12.6786,6.4288 -13.75,7.8574 -1.0714,1.4286 2.8568,15.3563 4.6426,26.4277 1.7857,11.0714 7.5,32.8575 7.5,32.8575 0,0 1.2502,-3e-4 5.3574,2.1425 4.1071,2.1429 1.7851,10.7141 1.7851,14.6426 0,3.9286 -2.856,15.3572 -3.5703,22.5 -0.7143,7.1429 -7.8574,13.5723 -7.8574,13.5723 0,0 -2.4992,5.356 -3.9277,11.0703 -1.4286,5.7143 -10.0006,7.8582 -13.2149,13.9297 -3.2143,6.0714 -23.2148,11.4283 -30.7148,14.6426 -7.5,3.2143 -20.3577,7.5005 -35.7149,10.7148 -15.3571,3.2143 -34.6425,5.1777 -34.6425,5.1777 -9.7999,14.1234 -12.6565,18.3484 -13.0352,33.9297 0,0 -3.75,38.0352 -3.75,43.0352 0,5 -0.3574,40.7148 -0.3574,40.7148 0,0 -7.5006,17.4983 -8.2149,25.3555 -0.7143,7.8571 -3.5711,63.9288 -2.1425,70.3574 1.4285,6.4286 1.4283,8.0371 -0.3575,15.5371 -0.3571,4.2857 -12.8563,36.2497 -13.9277,40.8926 -1.0715,4.6428 0.178,9.1071 5.5352,28.75 5.3571,19.6428 18.5187,42.5001 19.4648,44.2852 9.4643,17.8571 11.1988,33.6332 15.5352,45.5351 4.0595,11.142 2.6785,15.8932 3.75,21.6074 1.0714,5.7143 6.0728,11.2511 11.7871,17.6797 5.7143,6.4286 36.4277,51.7852 36.4277,51.7852 0,0 1.2497,115.7145 2.1426,120.3574 0.8928,4.6428 15.3574,15 15.3574,15 0,0 -1.786,44.6415 -0.3574,49.4629 1.4285,4.8214 3.9286,2.1431 5,9.1074 0.4604,2.993 -0.9007,3.8774 -1.9922,7.1348 -1.4484,4.3221 -2.4727,15.6572 -2.4727,21.2578 0,9.8214 -8.3928,47.68 -8.75,68.0371 -0.3571,20.3572 0.7149,135.3569 0.7149,139.6426 0,4.2857 -1.9043,5.4149 -4.4043,11.4863 -2.5,6.0714 1.8588,16.9999 4.0469,25.6563 0.7379,2.9192 1.5704,5.5964 0.088,11.4296 -0.934,3.6751 -4.13,10.0926 -5.707,17.4493 -2.0639,9.6281 -7.708,30.8485 -7.6777,40.4863 0.1013,30.9633 -8.8452,38.1356 -8.1309,119.207 0.7143,81.0714 15.2871,120.4551 15.2871,120.4551 9.5191,4.5291 10.2933,2.9586 11.3399,5.1562 1.175,2.4671 -2.1275,6.3076 1.5058,17.9083 7.9713,5.8444 14.7227,3.1518 21.4239,3.916 0,0 8.8717,19.7536 10.7597,23.7656 5.4066,10.723 54.8035,14.8169 86.6582,14.6797 43.9371,-2.5693 61.8673,-11.9804 62.0664,-12.6133 1.6516,-0.236 -0.664,-11.5566 -0.664,-11.5566 -6.3672,-5.7356 -19.5406,-11.7472 -31.668,-19.3575 -28.9394,-18.1602 -32.332,-22.4199 -32.332,-22.4199 0,0 -0.8997,-5.736 -1.8438,-6.916 -0.9439,-1.1801 -4.7636,-4.8848 -4.7636,-4.8848 l -1.1211,-7.7656 c 0,0 5.4793,6.3833 8.7832,6.6191 3.304,0.236 15.4648,8.4616 16.8808,9.17 1.4159,0.7079 11.5632,10.3841 12.2715,11.3281 0.708,0.944 24.5453,4.956 29.0293,4.4844 4.484,-0.472 107.5815,-1.0598 115.6055,-1.5313 8.0243,-0.472 1.8886,-23.1465 1.8886,-23.1465 0,0 -12.9604,-7.6406 -25.2324,-11.8886 -12.2719,-4.248 -49.31,-14.6449 -58.75,-17.7129 -9.44,-3.0681 -15.8117,-13.2156 -20.7676,-16.5196 -4.9559,-3.3039 -16.9921,-10.8574 -16.9921,-10.8574 0,0 -10e-5,-0.2345 4.0117,-0.707 7.0863,-1.7753 3.3551,-8.4914 -3.5489,-19.2969 -4.8766,-7.6324 -10.4222,-16.3932 -13.1953,-22.8574 -7.7878,-8.732 -17.2685,-21.1443 -13.7285,-23.7402 3.5401,-2.5961 18.897,-25.1899 19.1328,-26.8418 0.2361,-1.6521 -1.6413,-11.812 -4.9453,-17.0039 -3.304,-5.1922 -11.5636,-39.647 -12.0351,-48.379 -0.472,-8.7318 6.3383,-21.9401 6.5742,-25.2441 0.2359,-3.304 -3.5138,-7.8329 3.7324,-48.2363 5.5107,-30.7263 26.7124,-80.1993 26.4766,-87.2793 -0.236,-7.0798 0.504,-31.1065 4.7519,-63.9102 4.2481,-32.8038 20.7204,-74.9495 28.7305,-97.9785 5.3442,-13.0111 1.3568,-20.8723 6.2246,-48.1582 1.001,-15.6864 -3.0762,-27.9453 -3.0762,-27.9453 4.0787,0.4907 11.3972,1.8847 14.1699,0.09 0,0 7.0093,-95.7866 9.0118,-128.8281 2.0025,-33.0414 0.3331,-89.7798 -1.002,-104.4648 -1.335,-14.6851 -3.3379,-122.1524 -3.3379,-122.1524 0,0 2.3374,-0.334 4.3399,-0.334 2.0025,0 14.584,3.5164 17.5879,4.5176 3.0037,1.0013 34.3982,10.2527 39.7382,10.9199 2.4829,0.8462 20.619,-10.1624 32.3711,-17.9277 5.8898,-3.8917 13.159,-8.0502 14.1602,-15.7266 1.0013,-7.6763 -0.356,-26.1028 -29.0586,-103.8671 -24.7741,-65.7999 -29.1367,-66.5235 -31.8066,-66.5235 -1.5526,0 -4.7528,3.8325 -7.1797,7.0547 0.4861,-5.2391 -4.7871,-14.7793 -4.7871,-14.7793 0,0 -1.4074,1.71 -3.6993,4.0567 -0.093,-1.7162 -0.525,-8.5483 -1.6972,-10.5997 -1.335,-2.3362 -4.6025,-5.0536 -14.2813,-14.7324 -4.006,-6.6533 -14.8825,-32.5393 -16.2695,-37.5957 -0.6675,-4.6725 -38.2335,-24.699 -42.5723,-24.3652 -4.3388,0.3338 -15.2515,7.5599 -20.2578,6.8926 -5.0062,-0.6676 -14.017,-22.027 -16.0195,-24.3633 -0.7526,-0.9077 -0.6913,-6.3184 0.4609,-6.3184 1.4678,-1.1194 12.7569,-7.4454 13.3855,-8.6829 13.578,-22.0324 11.083,-34.3581 25.7434,-49.653 7.6763,-7.6763 18.9484,-44.8314 20.6172,-49.5039 1.6687,-4.6725 -3.4936,-3.8506 -5.4961,-5.1856 0.6502,-9.5661 0.4322,-23.916 3.9981,-38.7461 1.0309,-4.2877 1.826,-8.6297 2.0097,-12.8847 0.2899,-6.7144 3.1961,-20.8438 0.082,-27.3008 -13.2022,-20.9541 -61.9856,-33.3147 -81.8965,-39.5879 z"
         id="path849"
         transform="scale(0.26458333)" />
      <path
         style="opacity:1;fill:#ffffff;fill-opacity:1;stroke:none;stroke-width:1px;stroke-linecap:butt;stroke-linejoin:miter;stroke-opacity:1"
         d="m -1401.9648,1642.1621 c 0,0 -5.0237,6.1512 -11.7852,11.25 -10.8929,8.2143 -37.8574,21.4297 -37.8574,21.4297 0,0 -8.0364,4.82 -9.4649,3.2129 -1.4286,-1.6071 4.2871,-4.6426 4.2871,-4.6426 -5.3572,1.4286 -7.68,3.9283 -9.2871,7.1426 -1.6072,3.2143 10.5371,22.6797 10.5371,22.6797 0,0 3.5718,-1.2508 17.8575,-9.8223 14.2857,-8.5714 38.2134,-30.3571 40.1777,-35 1.9643,-4.6428 -4.4648,-16.25 -4.4648,-16.25 z m -216.9336,14.6406 c -0.3799,0 -0.5664,0 -0.5664,0 l 5.3574,4.4648 c 0,0 16.786,2.3212 32.8574,8.3926 16.0714,6.0715 33.0352,18.2149 33.0352,18.2149 l 0.5371,-13.0352 c 0,0 -5.8931,-5.18 -32.8575,-11.7871 -23.5937,-5.7813 -35.7045,-6.23 -38.3632,-6.252 z m 129.6132,4.1094 c 0,0 3.5717,8.7513 6.6075,18.0371 3.0356,9.2857 4.2851,20.5352 4.2851,20.5352 0,0 -1.0722,-24.8218 -1.0722,-27.8574 0,-3.0358 0.8931,-5.5358 -0.8926,-7.5 -1.7858,-1.9643 -8.9278,-3.2149 -8.9278,-3.2149 z"
         transform="scale(0.26458333)"
         id="path911" />
      <path
         style="opacity:1;fill:#ffffff;fill-opacity:1;stroke:none;stroke-width:1px;stroke-linecap:butt;stroke-linejoin:miter;stroke-opacity:1"
         d="m -1617.8594,1500.293 c -1.3938,4.065 -4.3455,7.5695 -5.9863,9.2949 0.3146,3.9908 0.8651,9.8492 1.6035,11.9414 1.1364,3.2199 4.0413,8.902 12.375,17.4883 8.3338,8.5863 45.7601,50.1088 63.6172,70.6445 17.8571,20.5357 39.6426,85.5371 39.6426,85.5371 0,0 -3.7503,-32.3217 -5.3574,-41.6074 -1.6072,-9.2857 -15.6405,-57.9541 -16.7138,-59.2168 -1.0733,-1.2627 -2.7607,-2.1614 -3.5183,-1.4038 -0.7577,0.7577 -4.5188,10.6982 -4.5188,10.6982 0,0 0.1164,-8.3928 1.0003,-10.5394 0.8839,-2.1466 1.6734,-5.75 2.9361,-11.6847 1.2627,-5.9346 1.2617,-10.6078 3.7871,-11.9336 2.5254,-1.3258 3.7257,0.9484 5.3672,2.7793 1.6415,1.8309 5.7441,5.6172 5.7441,5.6172 l 3.2696,0.1016 c 0.4308,-4.1985 2.8842,-7.3852 8.3613,-9.0606 l -0.1855,-8.8613 c -4.0547,-6.2037 -8.2806,-15.5146 -9.9629,-18.1152 -0.783,2.0106 -2.419,6.2463 -3.959,10.7265 -1.9644,5.7142 -9.2858,12.6783 -11.25,13.3926 -1.9643,0.7143 -3.9283,0.3572 -5.8926,0 -1.9643,-0.3571 -33.7509,-21.2514 -49.8223,-34.2871 -13.273,-10.7659 -26.2324,-26.2227 -30.5371,-31.5117 z"
         transform="scale(0.26458333)"
         id="path943" />
      <path
         style="fill:#ffffff;stroke:none;stroke-width:0.264583px;stroke-linecap:butt;stroke-linejoin:miter;stroke-opacity:1"
         d="m -419.07861,538.0771 -3.60816,-5.4122 c 0,0 -6.34764,6.08039 -10.62394,11.09168 -4.27633,5.01131 -6.08039,8.0849 -6.08039,8.0849 l 1.9377,3.8754 c 0,0 4.27633,-5.47902 6.94902,-8.1517 2.67269,-2.67269 11.42577,-9.48808 11.42577,-9.48808 z"
         id="path948" />
    </g>
  </g>
</svg>
